<svg width="64" height="64" viewBox="0 0 64 64" fill="none" xmlns="http://www.w3.org/2000/svg">
  <!-- Milk Bottle Icon -->
  <rect width="64" height="64" fill="black"/>

  <!-- Bottle body -->
  <path d="M24 18 L24 14 C24 12 25 10 27 10 L37 10 C39 10 40 12 40 14 L40 18 L42 20 L42 52 C42 54 40 56 38 56 L26 56 C24 56 22 54 22 52 L22 20 Z"
        fill="white"
        stroke="white"
        stroke-width="1.5"
        stroke-linejoin="round"/>

  <!-- Bottle cap -->
  <rect x="26" y="8" width="12" height="4" rx="1" fill="white"/>

  <!-- Milk level -->
  <path d="M24 38 L24 52 C24 53.5 24.5 55 26 55 L38 55 C39.5 55 40 53.5 40 52 L40 38 Z"
        fill="black"
        opacity="0.15"/>

  <!-- Highlight -->
  <ellipse cx="30" cy="28" rx="3" ry="6" fill="black" opacity="0.1"/>
</svg>
